<svg width="64" height="64" fill="none" xmlns="http://www.w3.org/2000/svg"><g clip-path="url(#clip0)"><path d="M60 22v23H5V22h55z" fill="#AFB6BB"/><path d="M56.373 10.227H43.217V.99l13.156 9.237z" fill="#A9A9A9"/><path d="M57 45H8v17h49V45zM56 9.5V21H8V1h35.027v8.477h12.934L56 9.5z" fill="#8B8B8B"/><path d="M32 45H8v17h24V45zM32.412 0H8v23.093h24.412V0z" fill="#6D6D6D"/><path d="M59.423 22H4v12.536h55.423V22z" fill="#A0A7AB"/><path d="M60.902 22a2 2 0 0 0-2-2h-1.299l-.201-10.276L43.529 0H6.598l.201 20H5.5a2 2 0 0 0-2 2v21.732a2 2 0 0 0 2 2h1.299L6.598 64h50.804l.201-18.268h1.3a2 2 0 0 0 2-2L60.901 22zM44.206 2.894l9.035 6.343h-9.035V2.894zM8.577 1.979h33.65v9.238h13.196l.2 8.783H8.779l-.2-18.02zm46.846 60.042H8.577l.201-16.289h46.846l-.201 16.289zm3.5-19.268a1 1 0 0 1-1 1H6.479a1 1 0 0 1-1-1V22.979a1 1 0 0 1 1-1h51.444a1 1 0 0 1 1 1v19.774z" fill="#303030"/><path d="M19.155 10h-.165a.99.99 0 1 0 0 1.98h.165a.99.99 0 1 0 0-1.98zM22.37 10h-.165a.99.99 0 0 0 0 1.98h.165a.99.99 0 1 0 0-1.98zM25.588 10h-.165a.99.99 0 1 0 0 1.98h.165a.99.99 0 1 0 0-1.98zM19.144 53H19a1 1 0 1 0 0 2h.144a1 1 0 1 0 0-2zM22.36 53h-.144a1 1 0 1 0 0 2h.144a1 1 0 1 0 0-2zM25.577 53h-.144a1 1 0 1 0 0 2h.144a1 1 0 1 0 0-2z" fill="#C5C5C5"/><circle cx="8.5" cy="25.5" r="1.75" fill="#B66363" stroke="#303030" stroke-width=".5"/><circle cx="8.5" cy="40.5" r="1.75" fill="#B66363" stroke="#303030" stroke-width=".5"/><circle cx="55.5" cy="40.5" r="1.75" fill="#B66363" stroke="#303030" stroke-width=".5"/><circle cx="55.5" cy="25.5" r="1.75" fill="#B66363" stroke="#303030" stroke-width=".5"/><path d="M26.084 35.264c-.11 1.53-.677 2.734-1.7 3.613-1.015.879-2.356 1.318-4.023 1.318-1.823 0-3.258-.612-4.306-1.836-1.042-1.23-1.563-2.916-1.563-5.058v-.87c0-1.366.241-2.571.723-3.613.482-1.041 1.169-1.839 2.06-2.392.899-.56 1.94-.84 3.125-.84 1.641 0 2.963.44 3.965 1.318 1.003.88 1.582 2.113 1.739 3.701h-2.93c-.072-.918-.329-1.582-.772-1.992-.436-.416-1.103-.625-2.002-.625-.976 0-1.709.352-2.197 1.055-.482.697-.729 1.78-.742 3.252v1.074c0 1.537.231 2.66.693 3.37.469.709 1.205 1.064 2.207 1.064.905 0 1.58-.205 2.022-.615.449-.417.706-1.058.771-1.924h2.93zm9.297 1.005c0-.553-.196-.976-.586-1.269-.39-.3-1.094-.612-2.11-.938-1.015-.331-1.82-.657-2.412-.976-1.614-.872-2.421-2.048-2.421-3.525 0-.769.214-1.452.644-2.051.436-.606 1.058-1.078 1.865-1.416.814-.339 1.726-.508 2.735-.508 1.015 0 1.92.186 2.715.557.794.364 1.41.882 1.845 1.552.443.67.664 1.433.664 2.285h-2.93c0-.65-.205-1.155-.615-1.513-.41-.365-.986-.547-1.728-.547-.716 0-1.273.153-1.67.459a1.42 1.42 0 0 0-.596 1.191c0 .463.231.85.694 1.162.468.313 1.155.606 2.06.88 1.667.5 2.881 1.122 3.643 1.865.762.742 1.142 1.666 1.142 2.773 0 1.23-.465 2.197-1.396 2.9-.931.697-2.184 1.045-3.76 1.045-1.094 0-2.09-.198-2.988-.595-.899-.404-1.585-.954-2.06-1.65-.47-.697-.704-1.505-.704-2.423h2.94c0 1.57.937 2.354 2.812 2.354.697 0 1.24-.14 1.63-.42.392-.286.587-.684.587-1.191zm12.304 0c0-.553-.195-.976-.585-1.269-.391-.3-1.094-.612-2.11-.938-1.015-.331-1.82-.657-2.412-.976-1.614-.872-2.422-2.048-2.422-3.525 0-.769.215-1.452.645-2.051.436-.606 1.058-1.078 1.865-1.416.814-.339 1.725-.508 2.734-.508 1.016 0 1.921.186 2.715.557.794.364 1.41.882 1.846 1.552.443.67.664 1.433.664 2.285h-2.93c0-.65-.205-1.155-.615-1.513-.41-.365-.986-.547-1.728-.547-.717 0-1.273.153-1.67.459a1.42 1.42 0 0 0-.596 1.191c0 .463.231.85.693 1.162.469.313 1.156.606 2.06.88 1.668.5 2.882 1.122 3.643 1.865.762.742 1.143 1.666 1.143 2.773 0 1.23-.465 2.197-1.397 2.9-.93.697-2.184 1.045-3.76 1.045-1.093 0-2.09-.198-2.988-.595-.898-.404-1.585-.954-2.06-1.65-.469-.697-.703-1.505-.703-2.423h2.94c0 1.57.937 2.354 2.812 2.354.696 0 1.24-.14 1.63-.42.391-.286.587-.684.587-1.191z" fill="#0061D4"/><path d="M26.084 35.264l.499.036.039-.536h-.538v.5zm-1.7 3.613l-.325-.38-.001.002.327.378zm-8.33-.518l-.38.323v.003l.38-.326zm1.221-11.933l.264.425-.264-.425zm7.09.478l-.33.376.33-.376zm1.739 3.701v.5h.551l-.054-.549-.497.05zm-2.93 0l-.499.04.036.46h.463v-.5zm-.772-1.992l-.345.362.006.005.34-.367zm-4.199.43l-.41-.285h-.001l.411.285zm-.742 3.252l-.5-.005v.005h.5zm.693 4.443l-.419.273.002.003.417-.276zm4.229.45l.34.366-.34-.367zm.771-1.924v-.5h-.463l-.035.462.498.038zm2.431-.036c-.102 1.417-.62 2.49-1.526 3.27l.652.758c1.137-.978 1.753-2.313 1.872-3.956l-.998-.072zm-1.527 3.27c-.905.784-2.12 1.197-3.697 1.197v1c1.757 0 3.224-.465 4.351-1.44l-.654-.756zm-3.697 1.197c-1.698 0-2.986-.563-3.927-1.66l-.76.65c1.157 1.35 2.74 2.01 4.687 2.01v-1zm-3.925-1.659c-.943-1.114-1.444-2.672-1.444-4.735h-1c0 2.22.54 4.035 1.681 5.381l.763-.646zm-1.444-4.735v-.87h-1v.87h1zm0-.87c0-1.308.23-2.438.677-3.403l-.908-.42c-.517 1.12-.769 2.398-.769 3.824h1zm.677-3.403c.444-.961 1.069-1.68 1.87-2.177l-.527-.85c-.983.61-1.732 1.486-2.251 2.607l.908.42zm1.87-2.178c.81-.505 1.758-.764 2.861-.764v-1c-1.266 0-2.402.3-3.39.915l.53.85zm2.861-.764c1.549 0 2.744.413 3.636 1.194l.659-.752c-1.114-.976-2.562-1.442-4.295-1.442v1zm3.636 1.194c.888.78 1.423 1.886 1.57 3.374l.995-.098c-.166-1.688-.79-3.05-1.906-4.028l-.66.752zm2.067 2.825h-2.93v1h2.93v-1zm-2.43.462c-.077-.98-.358-1.79-.93-2.32l-.68.733c.312.29.546.808.612 1.664l.997-.077zm-.925-2.315c-.566-.541-1.383-.764-2.348-.764v1c.832 0 1.35.194 1.657.487l.69-.723zm-2.348-.764c-1.113 0-2.012.412-2.608 1.27l.822.57c.38-.548.947-.84 1.786-.84v-1zm-2.608 1.27c-.567.82-.818 2.026-.831 3.533l1 .008c.013-1.436.257-2.398.653-2.972l-.822-.568zm-.831 3.537v1.074h1v-1.074h-1zm0 1.074c0 1.565.231 2.809.774 3.642l.838-.546c-.381-.585-.612-1.588-.612-3.096h-1zm.776 3.645c.58.876 1.489 1.289 2.624 1.289v-1c-.87 0-1.431-.297-1.79-.84l-.834.55zm2.624 1.289c.97 0 1.79-.219 2.362-.749l-.68-.733c-.313.29-.841.482-1.682.482v1zm2.362-.749c.574-.532.86-1.314.93-2.253l-.997-.075c-.06.793-.289 1.294-.613 1.595l.68.733zm.431-1.79h2.93v-1h-2.93v1zM34.794 35l-.303.397.004.003.3-.4zm-2.108-.938l-.156.476h.003l.152-.475zm-2.413-.976l-.237.44.237-.44zm-1.777-5.576l-.406-.293v.001l.406.292zm1.865-1.416l-.192-.462h-.001l.193.462zm5.45.049l-.212.453.003.001.209-.454zm1.845 1.552l-.419.273.002.003.417-.276zm.664 2.285v.5h.5v-.5h-.5zm-2.93 0h-.5v.5h.5v-.5zm-.615-1.513l-.332.373.004.003.328-.376zm-3.398-.088l.301.4.004-.004-.305-.396zm.098 2.353l-.28.415.002.001.278-.416zm2.06.88l-.144.478.144-.479zm3.389 7.538l.3.4h.001l-.301-.4zm-6.748.45l-.205.456h.003l.202-.456zm-2.06-1.65l-.416.278.002.003.413-.282zm-.704-2.423v-.5h-.5v.5h.5zm2.94 0h.5v-.5h-.5v.5zm4.443 1.934l.291.406.005-.003-.296-.403zm1.086-1.191c0-.687-.252-1.27-.786-1.67l-.6.8c.247.185.386.45.386.87h1zm-.782-1.667c-.464-.356-1.24-.69-2.26-1.017l-.306.953c1.01.323 1.64.615 1.958.858l.608-.794zm-2.258-1.016c-1.002-.327-1.775-.642-2.33-.941l-.475.88c.63.339 1.465.675 2.494 1.012l.31-.95zm-2.33-.941c-1.5-.81-2.16-1.838-2.16-3.085h-1c0 1.708.955 3.03 2.685 3.965l.475-.88zm-2.16-3.085c0-.669.185-1.25.551-1.76l-.812-.583a3.93 3.93 0 0 0-.738 2.343h1zm.55-1.759c.374-.519.916-.938 1.654-1.247l-.387-.922c-.877.368-1.579.892-2.078 1.585l.812.584zm1.652-1.247c.745-.31 1.59-.47 2.543-.47v-1c-1.066 0-2.044.18-2.927.547l.384.923zm2.543-.47c.954 0 1.785.175 2.503.51l.423-.905c-.87-.407-1.85-.604-2.926-.604v1zm2.506.512c.717.329 1.255.787 1.635 1.37l.838-.544c-.492-.757-1.184-1.335-2.056-1.735l-.417.909zm1.637 1.374c.385.584.581 1.248.581 2.01h1c0-.945-.246-1.804-.746-2.561l-.835.55zm1.081 1.51h-2.93v1h2.93v-1zm-2.43.5c0-.765-.245-1.42-.786-1.89l-.657.752c.28.245.444.6.444 1.137h1zm-.782-1.888c-.53-.47-1.24-.673-2.061-.673v1c.663 0 1.106.162 1.396.42l.665-.747zm-2.061-.673c-.78 0-1.46.166-1.975.563l.61.792c.28-.215.713-.355 1.365-.355v-1zm-1.971.56a1.918 1.918 0 0 0-.795 1.59h1c0-.337.124-.586.397-.792l-.602-.798zm-.795 1.59c0 .664.346 1.193.914 1.577l.56-.829c-.358-.241-.474-.487-.474-.748h-1zm.916 1.578c.528.352 1.269.663 2.194.942l.289-.957c-.885-.268-1.519-.544-1.928-.817l-.555.832zm2.194.942c1.633.491 2.76 1.083 3.438 1.745l.698-.717c-.845-.823-2.148-1.474-3.848-1.986l-.288.958zm3.438 1.745c.66.643.991 1.437.991 2.415h1c0-1.236-.43-2.291-1.293-3.132l-.698.717zm.991 2.415c0 1.084-.4 1.899-1.197 2.501l.602.798c1.064-.803 1.595-1.922 1.595-3.299h-1zm-1.196 2.5c-.818.612-1.955.945-3.46.945v1c1.646 0 3.016-.364 4.06-1.144l-.6-.8zm-3.46.945c-1.032 0-1.958-.187-2.786-.553l-.404.915c.969.428 2.035.638 3.19.638v-1zm-2.783-.551c-.829-.373-1.438-.868-1.853-1.477l-.826.564c.536.785 1.3 1.39 2.269 1.825l.41-.912zm-1.85-1.474c-.409-.606-.619-1.314-.619-2.143h-1c0 1.008.259 1.914.788 2.701l.83-.558zm-1.119-1.643h2.94v-1h-2.94v1zm2.44-.5c0 .888.269 1.636.882 2.149.596.499 1.435.705 2.43.705v-1c-.88 0-1.447-.186-1.788-.472-.325-.272-.524-.7-.524-1.382h-1zm3.312 2.854c.756 0 1.416-.151 1.922-.514l-.582-.813c-.276.198-.703.327-1.34.327v1zm1.927-.517c.526-.386.79-.936.79-1.594h-1c0 .357-.127.6-.382.788l.592.806zM47.1 35l-.305.397.005.003.3-.4zm-2.11-.938l-.155.476h.003l.152-.475zm-2.412-.976l-.238.44h.001l.237-.44zm-1.777-5.576l-.406-.293v.001l.406.292zm1.865-1.416l-.192-.462h-.001l.193.462zm5.45.049l-.212.453.003.001.208-.454zm1.845 1.552l-.42.273.003.003.417-.276zm.664 2.285v.5h.5v-.5h-.5zm-2.93 0h-.5v.5h.5v-.5zm-.615-1.513l-.332.373.003.003.33-.376zm-3.398-.088l.3.4.005-.004-.305-.396zm.097 2.353l-.28.415.003.001.277-.416zm2.06.88l-.144.478.145-.479zm3.39 7.538l.3.4-.3-.4zm-6.748.45l-.205.456h.002l.203-.456zm-2.061-1.65l-.415.278.002.003.413-.282zm-.703-2.423v-.5h-.5v.5h.5zm2.94 0h.5v-.5h-.5v.5zm4.443 1.934l.29.406.005-.003-.295-.403zm1.085-1.191c0-.687-.25-1.27-.785-1.67l-.6.8c.246.185.386.45.386.87h1zm-.781-1.667c-.464-.356-1.24-.69-2.261-1.017l-.305.953c1.01.323 1.64.615 1.957.858l.609-.794zm-2.258-1.016c-1.002-.327-1.775-.642-2.33-.941l-.475.88c.63.339 1.464.675 2.494 1.012l.31-.95zm-2.33-.941c-1.5-.81-2.16-1.838-2.16-3.085h-1c0 1.708.954 3.03 2.684 3.965l.476-.88zm-2.16-3.085c0-.669.185-1.25.551-1.76l-.813-.583a3.93 3.93 0 0 0-.738 2.343h1zm.55-1.759c.374-.519.916-.938 1.653-1.247l-.386-.922c-.878.368-1.58.892-2.078 1.585l.811.584zm1.652-1.247c.745-.31 1.59-.47 2.542-.47v-1c-1.065 0-2.043.18-2.926.547l.384.923zm2.542-.47c.954 0 1.785.175 2.504.51l.423-.905c-.87-.407-1.85-.604-2.927-.604v1zm2.507.512c.716.329 1.255.787 1.635 1.37l.838-.544c-.492-.757-1.184-1.335-2.056-1.735l-.417.909zm1.637 1.374c.385.584.581 1.248.581 2.01h1c0-.945-.247-1.804-.747-2.561l-.834.55zm1.081 1.51h-2.93v1h2.93v-1zm-2.43.5c0-.765-.246-1.42-.786-1.89l-.658.752c.28.245.444.6.444 1.137h1zm-.783-1.888c-.53-.47-1.24-.673-2.06-.673v1c.663 0 1.105.162 1.396.42l.664-.747zm-2.06-.673c-.781 0-1.46.166-1.975.563l.61.792c.279-.215.713-.355 1.365-.355v-1zm-1.971.56a1.918 1.918 0 0 0-.795 1.59h1c0-.337.124-.586.397-.792l-.602-.798zm-.795 1.59c0 .664.346 1.193.913 1.577l.56-.829c-.357-.241-.473-.487-.473-.748h-1zm.916 1.578c.528.352 1.268.663 2.193.942l.29-.957c-.886-.268-1.519-.544-1.928-.817l-.555.832zm2.194.942c1.633.491 2.759 1.083 3.438 1.745l.697-.717c-.845-.823-2.147-1.474-3.847-1.986l-.288.958zm3.438 1.745c.66.643.991 1.437.991 2.415h1c0-1.236-.431-2.291-1.294-3.132l-.698.717zm.991 2.415c0 1.084-.4 1.899-1.198 2.501l.603.798c1.064-.803 1.595-1.922 1.595-3.299h-1zm-1.196 2.5c-.819.612-1.955.945-3.46.945v1c1.645 0 3.016-.364 4.06-1.144l-.6-.8zm-3.46.945c-1.032 0-1.959-.187-2.786-.553l-.405.915c.97.428 2.035.638 3.19.638v-1zm-2.784-.551c-.828-.373-1.437-.868-1.852-1.477l-.826.564c.535.785 1.3 1.39 2.269 1.825l.41-.912zm-1.85-1.474c-.408-.606-.618-1.314-.618-2.143h-1c0 1.008.259 1.914.788 2.701l.83-.558zm-1.118-1.643h2.94v-1h-2.94v1zm2.44-.5c0 .888.269 1.636.882 2.149.595.499 1.435.705 2.43.705v-1c-.88 0-1.447-.186-1.789-.472-.324-.272-.524-.7-.524-1.382h-1zm3.312 2.854c.756 0 1.416-.151 1.922-.514l-.583-.813c-.275.198-.702.327-1.34.327v1zm1.926-.517c.526-.386.79-.936.79-1.594h-1c0 .357-.126.6-.381.788l.591.806z" fill="#000"/><path d="M14.571 8.9V6.1c0-.386.32-.7.715-.7A.707.707 0 0 0 16 4.7c0-.386-.32-.7-.714-.7-1.182 0-2.143.942-2.143 2.1v2.8c0 .772-.64 1.4-1.429 1.4A.707.707 0 0 0 11 11c0 .386.32.7.714.7.788 0 1.429.628 1.429 1.4v2.8c0 1.158.961 2.1 2.143 2.1a.707.707 0 0 0 .714-.7c0-.386-.32-.7-.714-.7a.708.708 0 0 1-.715-.7v-2.8a2.76 2.76 0 0 0-.987-2.1c.6-.514.987-1.26.987-2.1zM30.429 56.1v2.8c0 .386-.32.7-.715.7a.707.707 0 0 0-.714.7c0 .386.32.7.714.7 1.182 0 2.143-.942 2.143-2.1v-2.8c0-.772.64-1.4 1.429-1.4A.707.707 0 0 0 34 54c0-.386-.32-.7-.714-.7-.788 0-1.429-.628-1.429-1.4v-2.8c0-1.158-.961-2.1-2.143-2.1a.707.707 0 0 0-.714.7c0 .386.32.7.714.7.395 0 .715.314.715.7v2.8c0 .84.387 1.586.987 2.1a2.76 2.76 0 0 0-.987 2.1z" fill="#C5C5C5"/></g><defs><clipPath id="clip0"><path fill="#fff" d="M0 0h64v64H0z"/></clipPath></defs></svg>