<svg width="25" height="25" fill="none" xmlns="http://www.w3.org/2000/svg"><circle cx="3.5" cy="3" r="2.5" fill="#10BBFF"/><circle cx="12.5" cy="12.5" r="2.5" fill="#10BBFF"/><circle cx="21.5" cy="22" r="2.5" fill="#10BBFF"/><path d="M3.571 6.25a3.128 3.128 0 0 0 3.09-2.679h17.446a.446.446 0 1 0 0-.892H6.661A3.128 3.128 0 0 0 3.57 0 3.129 3.129 0 0 0 .446 3.125 3.129 3.129 0 0 0 3.571 6.25zm0-5.357a2.235 2.235 0 0 1 2.233 2.232A2.235 2.235 0 0 1 3.57 5.357 2.235 2.235 0 0 1 1.34 3.125 2.235 2.235 0 0 1 3.571.893zM21.429 18.75a3.128 3.128 0 0 0-3.09 2.679H.893a.446.446 0 1 0 0 .892h17.446A3.128 3.128 0 0 0 21.43 25a3.129 3.129 0 0 0 3.125-3.125 3.129 3.129 0 0 0-3.125-3.125zm0 5.357a2.235 2.235 0 0 1-2.233-2.232 2.235 2.235 0 0 1 2.233-2.232 2.235 2.235 0 0 1 2.232 2.232 2.235 2.235 0 0 1-2.232 2.232zM24.107 12.054H15.79a3.221 3.221 0 0 0-3.197-2.864 3.221 3.221 0 0 0-3.196 2.864H.893a.446.446 0 1 0 0 .892h8.53a3.22 3.22 0 0 0 3.17 2.679 3.22 3.22 0 0 0 3.168-2.679h8.346a.446.446 0 1 0 0-.892zm-11.515 2.678a2.327 2.327 0 0 1-2.324-2.324 2.327 2.327 0 0 1 2.324-2.325 2.327 2.327 0 0 1 2.325 2.325 2.327 2.327 0 0 1-2.325 2.324z" fill="#303030"/></svg>