<svg width="25" height="25" fill="none" xmlns="http://www.w3.org/2000/svg"><path d="M20.13 6h-5.217V1l5.217 5z" fill="#747474" stroke="#747474" stroke-width=".5"/><path d="M14.478 6.5v-6H1.87V24h18.26V6.5h-5.652z" fill="#C4C4C4"/><path d="M1.435.5h.435m0 0h12.608v6h5.652V24H1.87V.5z" stroke="#C4C4C4"/><path d="M16.32 9.167H5.68a.421.421 0 0 0-.425.416c0 .23.19.417.426.417h10.638a.421.421 0 0 0 .426-.417c0-.23-.191-.416-.426-.416zM5.68 6.667h4.256a.421.421 0 0 0 .426-.417c0-.23-.191-.417-.426-.417H5.681a.421.421 0 0 0-.426.417c0 .23.19.417.426.417zM16.32 12.5H5.68a.421.421 0 0 0-.425.417c0 .23.19.416.426.416h10.638a.421.421 0 0 0 .426-.416c0-.23-.191-.417-.426-.417zM16.32 15.833H5.68a.421.421 0 0 0-.425.417c0 .23.19.417.426.417h10.638a.421.421 0 0 0 .426-.417c0-.23-.191-.417-.426-.417zM16.32 19.167H5.68a.421.421 0 0 0-.425.416c0 .23.19.417.426.417h10.638a.421.421 0 0 0 .426-.417c0-.23-.191-.416-.426-.416z" fill="#303030"/><path d="M14.793 0H1v25h20V6.078L14.793 0zm.25 1.423l4.504 4.41h-4.504v-4.41zM1.85 24.166V.833h12.34v5.834h5.958v17.5H1.85z" fill="#303030"/></svg>