<svg width="32" height="32" fill="none" xmlns="http://www.w3.org/2000/svg"><path d="M16 0C7.164 0 0 7.164 0 16c0 8.837 7.164 16 16 16s16-7.163 16-16c0-8.836-7.164-16-16-16zm4.482 28.189c-.092-1.252-.195-2.803-.201-3.431-.04-.482-.092-1.708-1.256-2.491 4.62-.387 6.82-2.941 6.978-6.316.132-1.922-.632-3.612-1.989-4.976a27.354 27.354 0 0 0-.138-3.948c-1.042-.3-3.472.983-4.151 1.532-1.432-.556-4.937-.75-7.067 0-1.51-1.062-3.229-1.718-4.166-1.535-.865 1.917-.309 3.73-.14 3.945-1.114 1.018-2.668 2.271-2.246 4.896.677 3.85 3.385 5.925 7.745 6.433-.93.19-1.087.884-1.165 1.185-2.928 1.208-3.765-.746-4.135-1.255-1.23-1.52-2.332-1.08-2.4-1.056-.066.024-.116.12-.11.166.063.328.732.661.765.688.907.676 1.243 1.897 1.45 2.245 1.3 2.139 4.325 1.252 4.354 1.27.002.187-.021 1.761-.04 2.986C7.058 27.021 3 21.991 3 16 3 8.82 8.82 3 16 3s13 5.82 13 13c0 5.603-3.55 10.362-8.518 12.189z" fill="#303030"/></svg>