<svg width="25" height="25" fill="none" xmlns="http://www.w3.org/2000/svg"><path d="M16 3H7v20h15V9h-6V3z" fill="#C4C4C4" stroke="#C4C4C4"/><path d="M21.5 8.5l-5-5v5h5z" fill="#747474" stroke="#747474"/><path d="M19 16c-.48-2.56-1.297-3.488-4-4-2.85.498-3.641 1.444-4 4 .3 2.524 1.192 3.381 4 4 2.805-.569 3.793-1.355 4-4z" fill="#7DD3DF" stroke="#7DD3DF"/><path d="M20 1H3.5v20H6V2h10.5L20 5.5V1z" fill="#898989" stroke="#898989"/><path d="M23.878 24.289L22.75 23.16V8.577l-.207-.207-1.876-1.876V0H2.5v21.667h3.583v2.083h16.078l1.128 1.128a.416.416 0 0 0 .589 0 .416.416 0 0 0 0-.59zm-2.55-15.956H16.5V3.506l4.167 4.167.66.66zm-17.995 12.5v-20h16.5v4.828l-3.37-3.37-.207-.208H6.083v18.75h-2.75zm3.584 2.084v-20h8.75v6.25h6.25v13.16l-3.131-3.13a4.905 4.905 0 0 0 1.164-3.175 4.934 4.934 0 0 0-4.928-4.928 4.934 4.934 0 0 0-4.928 4.928 4.934 4.934 0 0 0 4.928 4.928c1.21 0 2.316-.44 3.175-1.164l3.13 3.13H6.918zm8.105-2.8a4.1 4.1 0 0 1-4.095-4.095 4.1 4.1 0 0 1 4.095-4.095 4.1 4.1 0 0 1 4.095 4.095 4.1 4.1 0 0 1-4.095 4.095z" fill="#303030"/><path d="M11.094 15h2.5a.416.416 0 1 0 0-.833h-2.5a.416.416 0 1 0 0 .833zM16.094 16.667h-5a.416.416 0 1 0 0 .833h5a.416.416 0 1 0 0-.833z" fill="#303030"/></svg>