<svg width="64" height="64" viewBox="0 0 64 64" fill="none" xmlns="http://www.w3.org/2000/svg">
<g clip-path="url(#clip0)">
<path d="M60 22V45H56.7262H8.27384H5V22H8.27384H56.7262H60Z" fill="#AFB6BB"/>
<path d="M56.3727 10.2267H43.2165V0.989746L56.3727 10.2267Z" fill="#A9A9A9"/>
<path d="M57 45H8V62H57V45Z" fill="#8B8B8B"/>
<path d="M56 9.5V21H8V1H43.027V9.47705H55.961L56 9.5Z" fill="#8B8B8B"/>
<path d="M32 45H8V62H32V45Z" fill="#6D6D6D"/>
<path d="M32.4124 0H8V23.0928H32.4124V0Z" fill="#6D6D6D"/>
<path d="M59.4228 22H56.1238H7.299H4V34.536H59.4228V22Z" fill="#A0A7AB"/>
<path d="M60.902 22C60.902 20.8954 60.0066 20 58.902 20H57.603L57.402 9.72388L43.5293 0H6.598L6.799 20H5.5C4.39543 20 3.5 20.8954 3.5 22V43.732C3.5 44.8366 4.39543 45.732 5.5 45.732H6.799L6.598 64H57.4021L57.6031 45.732H58.9021C60.0067 45.732 60.9021 44.8366 60.9021 43.732L60.902 22ZM44.2062 2.89387L53.2409 9.23713H44.2062V2.89387ZM8.57738 1.97938H42.2269V11.2165H55.4227L55.6237 20H8.77838L8.57738 1.97938ZM55.4226 62.0206H8.57738L8.77838 45.732H55.6237L55.4226 62.0206ZM58.9226 42.7526C58.9226 43.3049 58.4749 43.7526 57.9226 43.7526H6.47938C5.92709 43.7526 5.47938 43.3049 5.47938 42.7526V22.9794C5.47938 22.4271 5.92709 21.9794 6.47938 21.9794H57.9226C58.4749 21.9794 58.9226 22.4271 58.9226 22.9794V42.7526Z" fill="#303030"/>
<path d="M19.1547 10H18.9897C18.4431 10 18 10.4431 18 10.9897C18 11.5363 18.4431 11.9794 18.9897 11.9794H19.1547C19.7013 11.9794 20.1444 11.5363 20.1444 10.9897C20.1444 10.4431 19.7013 10 19.1547 10Z" fill="#C5C5C5"/>
<path d="M22.3704 10H22.2054C21.6588 10 21.2158 10.4431 21.2158 10.9897C21.2158 11.5363 21.6588 11.9794 22.2054 11.9794H22.3704C22.917 11.9794 23.3601 11.5363 23.3601 10.9897C23.3601 10.4431 22.917 10 22.3704 10Z" fill="#C5C5C5"/>
<path d="M25.5877 10H25.4227C24.8761 10 24.433 10.4431 24.433 10.9897C24.433 11.5363 24.8761 11.9794 25.4227 11.9794H25.5877C26.1343 11.9794 26.5774 11.5363 26.5774 10.9897C26.5774 10.4431 26.1343 10 25.5877 10Z" fill="#C5C5C5"/>
<path d="M19.1444 53H19C18.4477 53 18 53.4477 18 54C18 54.5523 18.4477 55 19 55H19.1444C19.6967 55 20.1444 54.5523 20.1444 54C20.1444 53.4477 19.6967 53 19.1444 53Z" fill="#C5C5C5"/>
<path d="M22.3601 53H22.2158C21.6635 53 21.2158 53.4477 21.2158 54C21.2158 54.5523 21.6635 55 22.2158 55H22.3601C22.9124 55 23.3601 54.5523 23.3601 54C23.3601 53.4477 22.9124 53 22.3601 53Z" fill="#C5C5C5"/>
<path d="M25.5774 53H25.433C24.8807 53 24.433 53.4477 24.433 54C24.433 54.5523 24.8807 55 25.433 55H25.5774C26.1297 55 26.5774 54.5523 26.5774 54C26.5774 53.4477 26.1297 53 25.5774 53Z" fill="#C5C5C5"/>
<circle cx="8.5" cy="25.5" r="1.75" fill="#B66363" stroke="#303030" stroke-width="0.5"/>
<circle cx="8.5" cy="40.5" r="1.75" fill="#B66363" stroke="#303030" stroke-width="0.5"/>
<circle cx="55.5" cy="40.5" r="1.75" fill="#B66363" stroke="#303030" stroke-width="0.5"/>
<circle cx="55.5" cy="25.5" r="1.75" fill="#B66363" stroke="#303030" stroke-width="0.5"/>
<path d="M26.084 35.2637C25.9733 36.7936 25.4069 37.998 24.3848 38.877C23.3691 39.7559 22.028 40.1953 20.3613 40.1953C18.5384 40.1953 17.1029 39.5833 16.0547 38.3594C15.013 37.1289 14.4922 35.4427 14.4922 33.3008V32.4316C14.4922 31.0645 14.7331 29.86 15.2148 28.8184C15.6966 27.7767 16.3835 26.9792 17.2754 26.4258C18.1738 25.8659 19.2155 25.5859 20.4004 25.5859C22.041 25.5859 23.3626 26.0254 24.3652 26.9043C25.3678 27.7832 25.9473 29.0169 26.1035 30.6055H23.1738C23.1022 29.6875 22.8451 29.0234 22.4023 28.6133C21.9661 28.1966 21.2988 27.9883 20.4004 27.9883C19.4238 27.9883 18.6914 28.3398 18.2031 29.043C17.7214 29.7396 17.474 30.8236 17.4609 32.2949V33.3691C17.4609 34.9056 17.6921 36.0286 18.1543 36.7383C18.623 37.4479 19.3587 37.8027 20.3613 37.8027C21.2663 37.8027 21.9401 37.5977 22.3828 37.1875C22.832 36.7708 23.0892 36.1296 23.1543 35.2637H26.084ZM35.3809 36.2695C35.3809 35.7161 35.1855 35.293 34.7949 35C34.4043 34.7005 33.7012 34.388 32.6855 34.0625C31.6699 33.7305 30.8659 33.4049 30.2734 33.0859C28.6589 32.2135 27.8516 31.0384 27.8516 29.5605C27.8516 28.7923 28.0664 28.1087 28.4961 27.5098C28.9323 26.9043 29.554 26.4323 30.3613 26.0938C31.1751 25.7552 32.0866 25.5859 33.0957 25.5859C34.1113 25.5859 35.0163 25.7715 35.8105 26.1426C36.6048 26.5072 37.2201 27.0247 37.6562 27.6953C38.099 28.3659 38.3203 29.1276 38.3203 29.9805H35.3906C35.3906 29.3294 35.1855 28.8249 34.7754 28.4668C34.3652 28.1022 33.7891 27.9199 33.0469 27.9199C32.3307 27.9199 31.7741 28.0729 31.377 28.3789C30.9798 28.6784 30.7812 29.0755 30.7812 29.5703C30.7812 30.0326 31.0124 30.4199 31.4746 30.7324C31.9434 31.0449 32.6302 31.3379 33.5352 31.6113C35.2018 32.1126 36.416 32.7344 37.1777 33.4766C37.9395 34.2188 38.3203 35.1432 38.3203 36.25C38.3203 37.4805 37.8548 38.4473 36.9238 39.1504C35.9928 39.847 34.7396 40.1953 33.1641 40.1953C32.0703 40.1953 31.0742 39.9967 30.1758 39.5996C29.2773 39.196 28.5905 38.6458 28.1152 37.9492C27.6465 37.2526 27.4121 36.4453 27.4121 35.5273H30.3516C30.3516 37.0964 31.2891 37.8809 33.1641 37.8809C33.8607 37.8809 34.4043 37.7409 34.7949 37.4609C35.1855 37.1745 35.3809 36.7773 35.3809 36.2695ZM47.6855 36.2695C47.6855 35.7161 47.4902 35.293 47.0996 35C46.709 34.7005 46.0059 34.388 44.9902 34.0625C43.9746 33.7305 43.1706 33.4049 42.5781 33.0859C40.9635 32.2135 40.1562 31.0384 40.1562 29.5605C40.1562 28.7923 40.3711 28.1087 40.8008 27.5098C41.237 26.9043 41.8587 26.4323 42.666 26.0938C43.4798 25.7552 44.3913 25.5859 45.4004 25.5859C46.416 25.5859 47.321 25.7715 48.1152 26.1426C48.9095 26.5072 49.5247 27.0247 49.9609 27.6953C50.4036 28.3659 50.625 29.1276 50.625 29.9805H47.6953C47.6953 29.3294 47.4902 28.8249 47.0801 28.4668C46.6699 28.1022 46.0938 27.9199 45.3516 27.9199C44.6354 27.9199 44.0788 28.0729 43.6816 28.3789C43.2845 28.6784 43.0859 29.0755 43.0859 29.5703C43.0859 30.0326 43.3171 30.4199 43.7793 30.7324C44.248 31.0449 44.9349 31.3379 45.8398 31.6113C47.5065 32.1126 48.7207 32.7344 49.4824 33.4766C50.2441 34.2188 50.625 35.1432 50.625 36.25C50.625 37.4805 50.1595 38.4473 49.2285 39.1504C48.2975 39.847 47.0443 40.1953 45.4688 40.1953C44.375 40.1953 43.3789 39.9967 42.4805 39.5996C41.582 39.196 40.8952 38.6458 40.4199 37.9492C39.9512 37.2526 39.7168 36.4453 39.7168 35.5273H42.6562C42.6562 37.0964 43.5938 37.8809 45.4688 37.8809C46.1654 37.8809 46.709 37.7409 47.0996 37.4609C47.4902 37.1745 47.6855 36.7773 47.6855 36.2695Z" fill="#0061D4"/>
<path d="M26.084 35.2637L26.5827 35.2997L26.6215 34.7637H26.084V35.2637ZM24.3848 38.877L24.0588 38.4978L24.0576 38.4989L24.3848 38.877ZM16.0547 38.3594L15.6731 38.6824L15.6749 38.6846L16.0547 38.3594ZM17.2754 26.4258L17.539 26.8507L17.5398 26.8501L17.2754 26.4258ZM24.3652 26.9043L24.0356 27.2803L24.3652 26.9043ZM26.1035 30.6055V31.1055H26.6551L26.6011 30.5565L26.1035 30.6055ZM23.1738 30.6055L22.6753 30.6444L22.7113 31.1055H23.1738V30.6055ZM22.4023 28.6133L22.0569 28.9749L22.0625 28.9801L22.4023 28.6133ZM18.2031 29.043L17.7924 28.7578L17.7919 28.7586L18.2031 29.043ZM17.4609 32.2949L16.9609 32.2905V32.2949H17.4609ZM18.1543 36.7383L17.7353 37.0112L17.7371 37.0139L18.1543 36.7383ZM22.3828 37.1875L22.7226 37.5543L22.7228 37.5541L22.3828 37.1875ZM23.1543 35.2637V34.7637H22.6905L22.6557 35.2262L23.1543 35.2637ZM25.5853 35.2276C25.4828 36.6447 24.9658 37.7179 24.0588 38.4978L24.7108 39.2561C25.848 38.2781 26.4638 36.9425 26.5827 35.2997L25.5853 35.2276ZM24.0576 38.4989C23.1532 39.2815 21.9378 39.6953 20.3613 39.6953V40.6953C22.1182 40.6953 23.5851 40.2302 24.712 39.255L24.0576 38.4989ZM20.3613 39.6953C18.663 39.6953 17.3745 39.1319 16.4345 38.0341L15.6749 38.6846C16.8312 40.0348 18.4138 40.6953 20.3613 40.6953V39.6953ZM16.4363 38.0363C15.4931 36.9221 14.9922 35.3637 14.9922 33.3008H13.9922C13.9922 35.5218 14.5329 37.3357 15.6731 38.6824L16.4363 38.0363ZM14.9922 33.3008V32.4316H13.9922V33.3008H14.9922ZM14.9922 32.4316C14.9922 31.1233 15.2226 29.9927 15.6687 29.0282L14.761 28.6085C14.2436 29.7273 13.9922 31.0057 13.9922 32.4316H14.9922ZM15.6687 29.0282C16.1134 28.0667 16.7378 27.3477 17.539 26.8506L17.0118 26.0009C16.0291 26.6106 15.2798 27.4867 14.761 28.6085L15.6687 29.0282ZM17.5398 26.8501C18.3497 26.3454 19.2975 26.0859 20.4004 26.0859V25.0859C19.1335 25.0859 17.9979 25.3864 17.0109 26.0014L17.5398 26.8501ZM20.4004 26.0859C21.9489 26.0859 23.144 26.4986 24.0356 27.2803L24.6948 26.5283C23.5813 25.5522 22.1332 25.0859 20.4004 25.0859V26.0859ZM24.0356 27.2803C24.9245 28.0595 25.4595 29.1658 25.6059 30.6544L26.6011 30.5565C26.435 28.868 25.8112 27.5069 24.6948 26.5283L24.0356 27.2803ZM26.1035 30.1055H23.1738V31.1055H26.1035V30.1055ZM23.6723 30.5666C23.5959 29.5872 23.3153 28.7775 22.7422 28.2465L22.0625 28.9801C22.3748 29.2694 22.6085 29.7878 22.6753 30.6444L23.6723 30.5666ZM22.7477 28.2517C22.1817 27.711 21.3655 27.4883 20.4004 27.4883V28.4883C21.2321 28.4883 21.7506 28.6822 22.057 28.9748L22.7477 28.2517ZM20.4004 27.4883C19.2867 27.4883 18.3884 27.8995 17.7924 28.7578L18.6138 29.3282C18.9944 28.7801 19.5609 28.4883 20.4004 28.4883V27.4883ZM17.7919 28.7586C17.2249 29.5785 16.9743 30.7843 16.961 32.2905L17.9609 32.2993C17.9736 30.8628 18.2179 29.9007 18.6144 29.3274L17.7919 28.7586ZM16.9609 32.2949V33.3691H17.9609V32.2949H16.9609ZM16.9609 33.3691C16.9609 34.9344 17.1924 36.1777 17.7353 37.0112L18.5733 36.4654C18.1917 35.8796 17.9609 34.8768 17.9609 33.3691H16.9609ZM17.7371 37.0139C18.3161 37.8903 19.2256 38.3027 20.3613 38.3027V37.3027C19.4919 37.3027 18.93 37.0055 18.5715 36.4627L17.7371 37.0139ZM20.3613 38.3027C21.3308 38.3027 22.1505 38.0843 22.7226 37.5543L22.043 36.8207C21.7297 37.111 21.2018 37.3027 20.3613 37.3027V38.3027ZM22.7228 37.5541C23.297 37.0216 23.5823 36.2404 23.6529 35.3012L22.6557 35.2262C22.5961 36.0187 22.3671 36.5201 22.0428 36.8209L22.7228 37.5541ZM23.1543 35.7637H26.084V34.7637H23.1543V35.7637ZM34.7949 35L34.4907 35.3968L34.4949 35.4L34.7949 35ZM32.6855 34.0625L32.5302 34.5378L32.5329 34.5386L32.6855 34.0625ZM30.2734 33.0859L30.0358 33.5258L30.0364 33.5262L30.2734 33.0859ZM28.4961 27.5098L28.0904 27.2175L28.0898 27.2183L28.4961 27.5098ZM30.3613 26.0938L30.1693 25.6321L30.168 25.6327L30.3613 26.0938ZM35.8105 26.1426L35.5989 26.5956L35.602 26.597L35.8105 26.1426ZM37.6562 27.6953L37.2371 27.968L37.239 27.9708L37.6562 27.6953ZM38.3203 29.9805V30.4805H38.8203V29.9805H38.3203ZM35.3906 29.9805H34.8906V30.4805H35.3906V29.9805ZM34.7754 28.4668L34.4432 28.8405L34.4466 28.8435L34.7754 28.4668ZM31.377 28.3789L31.678 28.7781L31.6821 28.775L31.377 28.3789ZM31.4746 30.7324L31.1946 31.1467L31.1973 31.1484L31.4746 30.7324ZM33.5352 31.6113L33.3905 32.09L33.3911 32.0901L33.5352 31.6113ZM36.9238 39.1504L37.2234 39.5507L37.2252 39.5494L36.9238 39.1504ZM30.1758 39.5996L29.9709 40.0557L29.9736 40.0569L30.1758 39.5996ZM28.1152 37.9492L27.7004 38.2284L27.7022 38.231L28.1152 37.9492ZM27.4121 35.5273V35.0273H26.9121V35.5273H27.4121ZM30.3516 35.5273H30.8516V35.0273H30.3516V35.5273ZM34.7949 37.4609L35.0862 37.8674L35.0906 37.8641L34.7949 37.4609ZM35.8809 36.2695C35.8809 35.5828 35.6295 35.0009 35.0949 34.6L34.4949 35.4C34.7416 35.585 34.8809 35.8495 34.8809 36.2695H35.8809ZM35.0991 34.6032C34.6349 34.2473 33.8598 33.9138 32.8382 33.5864L32.5329 34.5386C33.5426 34.8622 34.1737 35.1537 34.4907 35.3968L35.0991 34.6032ZM32.8409 33.5873C31.8391 33.2598 31.0662 32.9449 30.5105 32.6457L30.0364 33.5262C30.6656 33.865 31.5007 34.2012 32.5302 34.5377L32.8409 33.5873ZM30.5111 32.646C29.0119 31.836 28.3516 30.8076 28.3516 29.5605H27.3516C27.3516 31.2692 28.3058 32.5911 30.0358 33.5258L30.5111 32.646ZM28.3516 29.5605C28.3516 28.8922 28.5363 28.3115 28.9024 27.8012L28.0898 27.2183C27.5965 27.906 27.3516 28.6925 27.3516 29.5605H28.3516ZM28.9018 27.802C29.2754 27.2834 29.8175 26.864 30.5547 26.5548L30.168 25.6327C29.2906 26.0006 28.5892 26.5252 28.0904 27.2175L28.9018 27.802ZM30.5534 26.5554C31.2981 26.2456 32.143 26.0859 33.0957 26.0859V25.0859C32.0302 25.0859 31.0521 25.2648 30.1693 25.6321L30.5534 26.5554ZM33.0957 26.0859C34.0497 26.0859 34.8806 26.26 35.5989 26.5956L36.0222 25.6896C35.1519 25.283 34.1729 25.0859 33.0957 25.0859V26.0859ZM35.602 26.597C36.3185 26.9259 36.8572 27.3839 37.2371 27.9679L38.0754 27.4227C37.5829 26.6655 36.8911 26.0884 36.0191 25.6882L35.602 26.597ZM37.239 27.9708C37.6243 28.5545 37.8203 29.2192 37.8203 29.9805H38.8203C38.8203 29.036 38.5736 28.1773 38.0735 27.4198L37.239 27.9708ZM38.3203 29.4805H35.3906V30.4805H38.3203V29.4805ZM35.8906 29.9805C35.8906 29.216 35.6445 28.5618 35.1042 28.0901L34.4466 28.8435C34.7266 29.088 34.8906 29.4428 34.8906 29.9805H35.8906ZM35.1076 28.0931C34.5778 27.6222 33.8679 27.4199 33.0469 27.4199V28.4199C33.7102 28.4199 34.1526 28.5822 34.4432 28.8405L35.1076 28.0931ZM33.0469 27.4199C32.2663 27.4199 31.5869 27.586 31.0718 27.9828L31.6821 28.775C31.9613 28.5599 32.3952 28.4199 33.0469 28.4199V27.4199ZM31.0759 27.9797C30.5543 28.3731 30.2812 28.9176 30.2812 29.5703H31.2812C31.2812 29.2334 31.4054 28.9837 31.678 28.7781L31.0759 27.9797ZM30.2812 29.5703C30.2812 30.2344 30.6274 30.7632 31.1946 31.1466L31.7546 30.3182C31.3974 30.0767 31.2812 29.8307 31.2812 29.5703H30.2812ZM31.1973 31.1484C31.7253 31.5005 32.4658 31.8105 33.3905 32.09L33.6798 31.1327C32.7946 30.8652 32.1614 30.5894 31.752 30.3164L31.1973 31.1484ZM33.3911 32.0901C35.0242 32.5813 36.1502 33.1735 36.8288 33.8347L37.5267 33.1184C36.6818 32.2953 35.3794 31.6439 33.6792 31.1325L33.3911 32.0901ZM36.8288 33.8347C37.4896 34.4785 37.8203 35.2719 37.8203 36.25H38.8203C38.8203 35.0145 38.3893 33.959 37.5267 33.1184L36.8288 33.8347ZM37.8203 36.25C37.8203 37.3337 37.4206 38.1486 36.6225 38.7514L37.2252 39.5494C38.289 38.7459 38.8203 37.6273 38.8203 36.25H37.8203ZM36.6243 38.7501C35.8058 39.3625 34.6694 39.6953 33.1641 39.6953V40.6953C34.8097 40.6953 36.1799 40.3315 37.2234 39.5507L36.6243 38.7501ZM33.1641 39.6953C32.132 39.6953 31.2058 39.5082 30.3779 39.1423L29.9736 40.0569C30.9426 40.4852 32.0086 40.6953 33.1641 40.6953V39.6953ZM30.3807 39.1435C29.552 38.7712 28.9434 38.2758 28.5283 37.6674L27.7022 38.231C28.2376 39.0158 29.0027 39.6207 29.9709 40.0557L30.3807 39.1435ZM28.5301 37.6701C28.122 37.0637 27.9121 36.3556 27.9121 35.5273H26.9121C26.9121 36.5351 27.171 37.4415 27.7004 38.2284L28.5301 37.6701ZM27.4121 36.0273H30.3516V35.0273H27.4121V36.0273ZM29.8516 35.5273C29.8516 36.4146 30.1209 37.163 30.7338 37.6759C31.3297 38.1746 32.1691 38.3809 33.1641 38.3809V37.3809C32.2841 37.3809 31.7172 37.1949 31.3756 36.909C31.051 36.6374 30.8516 36.2091 30.8516 35.5273H29.8516ZM33.1641 38.3809C33.9202 38.3809 34.5802 38.23 35.0862 37.8673L34.5037 37.0545C34.2284 37.2518 33.8012 37.3809 33.1641 37.3809V38.3809ZM35.0906 37.8641C35.6168 37.4783 35.8809 36.9276 35.8809 36.2695H34.8809C34.8809 36.6271 34.7543 36.8707 34.4992 37.0577L35.0906 37.8641ZM47.0996 35L46.7954 35.3968L46.7996 35.4L47.0996 35ZM44.9902 34.0625L44.8349 34.5378L44.8376 34.5386L44.9902 34.0625ZM42.5781 33.0859L42.3404 33.5258L42.3411 33.5262L42.5781 33.0859ZM40.8008 27.5098L40.3951 27.2175L40.3945 27.2183L40.8008 27.5098ZM42.666 26.0938L42.474 25.6321L42.4727 25.6327L42.666 26.0938ZM48.1152 26.1426L47.9036 26.5956L47.9067 26.597L48.1152 26.1426ZM49.9609 27.6953L49.5418 27.968L49.5437 27.9708L49.9609 27.6953ZM50.625 29.9805V30.4805H51.125V29.9805H50.625ZM47.6953 29.9805H47.1953V30.4805H47.6953V29.9805ZM47.0801 28.4668L46.7479 28.8405L46.7512 28.8435L47.0801 28.4668ZM43.6816 28.3789L43.9827 28.7781L43.9868 28.775L43.6816 28.3789ZM43.7793 30.7324L43.4993 31.1467L43.5019 31.1484L43.7793 30.7324ZM45.8398 31.6113L45.6952 32.09L45.6958 32.0901L45.8398 31.6113ZM49.2285 39.1504L49.5281 39.5507L49.5299 39.5494L49.2285 39.1504ZM42.4805 39.5996L42.2756 40.0557L42.2783 40.0569L42.4805 39.5996ZM40.4199 37.9492L40.0051 38.2284L40.0069 38.231L40.4199 37.9492ZM39.7168 35.5273V35.0273H39.2168V35.5273H39.7168ZM42.6562 35.5273H43.1562V35.0273H42.6562V35.5273ZM47.0996 37.4609L47.3909 37.8674L47.3953 37.8641L47.0996 37.4609ZM48.1855 36.2695C48.1855 35.5828 47.9342 35.0009 47.3996 34.6L46.7996 35.4C47.0463 35.585 47.1855 35.8495 47.1855 36.2695H48.1855ZM47.4038 34.6032C46.9396 34.2473 46.1645 33.9138 45.1428 33.5864L44.8376 34.5386C45.8473 34.8622 46.4784 35.1537 46.7954 35.3968L47.4038 34.6032ZM45.1456 33.5873C44.1438 33.2598 43.3709 32.9449 42.8152 32.6457L42.3411 33.5262C42.9702 33.865 43.8054 34.2012 44.8349 34.5377L45.1456 33.5873ZM42.8158 32.646C41.3166 31.836 40.6562 30.8076 40.6562 29.5605H39.6562C39.6562 31.2692 40.6104 32.5911 42.3404 33.5258L42.8158 32.646ZM40.6562 29.5605C40.6562 28.8922 40.841 28.3115 41.2071 27.8012L40.3945 27.2183C39.9012 27.906 39.6562 28.6925 39.6562 29.5605H40.6562ZM41.2065 27.802C41.5801 27.2834 42.1222 26.864 42.8594 26.5548L42.4727 25.6327C41.5953 26.0006 40.8939 26.5252 40.3951 27.2175L41.2065 27.802ZM42.8581 26.5554C43.6028 26.2456 44.4477 26.0859 45.4004 26.0859V25.0859C44.3348 25.0859 43.3568 25.2648 42.474 25.6321L42.8581 26.5554ZM45.4004 26.0859C46.3544 26.0859 47.1853 26.26 47.9036 26.5956L48.3269 25.6896C47.4566 25.283 46.4776 25.0859 45.4004 25.0859V26.0859ZM47.9067 26.597C48.6232 26.9259 49.1619 27.3839 49.5418 27.9679L50.3801 27.4227C49.8876 26.6655 49.1958 26.0884 48.3238 25.6882L47.9067 26.597ZM49.5437 27.9708C49.929 28.5545 50.125 29.2192 50.125 29.9805H51.125C51.125 29.036 50.8783 28.1773 50.3782 27.4198L49.5437 27.9708ZM50.625 29.4805H47.6953V30.4805H50.625V29.4805ZM48.1953 29.9805C48.1953 29.216 47.9492 28.5618 47.4089 28.0901L46.7512 28.8435C47.0313 29.088 47.1953 29.4428 47.1953 29.9805H48.1953ZM47.4123 28.0931C46.8825 27.6222 46.1726 27.4199 45.3516 27.4199V28.4199C46.0149 28.4199 46.4573 28.5822 46.7479 28.8405L47.4123 28.0931ZM45.3516 27.4199C44.571 27.4199 43.8916 27.586 43.3765 27.9828L43.9868 28.775C44.266 28.5599 44.6999 28.4199 45.3516 28.4199V27.4199ZM43.3806 27.9797C42.859 28.3731 42.5859 28.9176 42.5859 29.5703H43.5859C43.5859 29.2334 43.7101 28.9837 43.9827 28.7781L43.3806 27.9797ZM42.5859 29.5703C42.5859 30.2344 42.9321 30.7632 43.4993 31.1466L44.0593 30.3182C43.7021 30.0767 43.5859 29.8307 43.5859 29.5703H42.5859ZM43.5019 31.1484C44.03 31.5005 44.7705 31.8105 45.6952 32.09L45.9845 31.1327C45.0993 30.8652 44.4661 30.5894 44.0566 30.3164L43.5019 31.1484ZM45.6958 32.0901C47.3289 32.5813 48.4549 33.1735 49.1335 33.8347L49.8314 33.1184C48.9865 32.2953 47.6841 31.6439 45.9839 31.1325L45.6958 32.0901ZM49.1335 33.8347C49.7943 34.4785 50.125 35.2719 50.125 36.25H51.125C51.125 35.0145 50.694 33.959 49.8314 33.1184L49.1335 33.8347ZM50.125 36.25C50.125 37.3337 49.7253 38.1486 48.9272 38.7514L49.5299 39.5494C50.5937 38.7459 51.125 37.6273 51.125 36.25H50.125ZM48.929 38.7501C48.1105 39.3625 46.9741 39.6953 45.4688 39.6953V40.6953C47.1144 40.6953 48.4846 40.3315 49.5281 39.5507L48.929 38.7501ZM45.4688 39.6953C44.4367 39.6953 43.5105 39.5082 42.6826 39.1423L42.2783 40.0569C43.2473 40.4852 44.3133 40.6953 45.4688 40.6953V39.6953ZM42.6854 39.1435C41.8567 38.7712 41.248 38.2758 40.833 37.6674L40.0069 38.231C40.5423 39.0158 41.3073 39.6207 42.2756 40.0557L42.6854 39.1435ZM40.8348 37.6701C40.4267 37.0637 40.2168 36.3556 40.2168 35.5273H39.2168C39.2168 36.5351 39.4757 37.4415 40.0051 38.2284L40.8348 37.6701ZM39.7168 36.0273H42.6562V35.0273H39.7168V36.0273ZM42.1562 35.5273C42.1562 36.4146 42.4256 37.163 43.0385 37.6759C43.6344 38.1746 44.4737 38.3809 45.4688 38.3809V37.3809C44.5888 37.3809 44.0219 37.1949 43.6803 36.909C43.3557 36.6374 43.1562 36.2091 43.1562 35.5273H42.1562ZM45.4688 38.3809C46.2248 38.3809 46.8849 38.23 47.3909 37.8673L46.8083 37.0545C46.5331 37.2518 46.1059 37.3809 45.4688 37.3809V38.3809ZM47.3953 37.8641C47.9215 37.4783 48.1855 36.9276 48.1855 36.2695H47.1855C47.1855 36.6271 47.059 36.8707 46.8039 37.0577L47.3953 37.8641Z" fill="black"/>
<path d="M14.5714 8.9V6.1C14.5714 5.7143 14.8914 5.4 15.2857 5.4C15.6807 5.4 16 5.0864 16 4.7C16 4.3136 15.6807 4 15.2857 4C14.1043 4 13.1429 4.9422 13.1429 6.1V8.9C13.1429 9.6721 12.5021 10.3 11.7143 10.3C11.3193 10.3 11 10.6136 11 11C11 11.3864 11.3193 11.7 11.7143 11.7C12.5021 11.7 13.1429 12.3279 13.1429 13.1V15.9C13.1429 17.0578 14.1043 18 15.2857 18C15.6807 18 16 17.6864 16 17.3C16 16.9136 15.6807 16.6 15.2857 16.6C14.8914 16.6 14.5714 16.2857 14.5714 15.9V13.1C14.5714 12.26 14.1843 11.5138 13.5843 11C14.1843 10.4862 14.5714 9.74 14.5714 8.9Z" fill="#C5C5C5"/>
<path d="M30.4286 56.1L30.4286 58.9C30.4286 59.2857 30.1086 59.6 29.7143 59.6C29.3193 59.6 29 59.9136 29 60.3C29 60.6864 29.3193 61 29.7143 61C30.8957 61 31.8571 60.0578 31.8571 58.9L31.8571 56.1C31.8571 55.3279 32.4979 54.7 33.2857 54.7C33.6807 54.7 34 54.3864 34 54C34 53.6136 33.6807 53.3 33.2857 53.3C32.4979 53.3 31.8571 52.6721 31.8571 51.9L31.8571 49.1C31.8571 47.9422 30.8957 47 29.7143 47C29.3193 47 29 47.3136 29 47.7C29 48.0864 29.3193 48.4 29.7143 48.4C30.1086 48.4 30.4286 48.7143 30.4286 49.1L30.4286 51.9C30.4286 52.74 30.8157 53.4862 31.4157 54C30.8157 54.5138 30.4286 55.26 30.4286 56.1Z" fill="#C5C5C5"/>
</g>
<defs>
<clipPath id="clip0">
<rect width="64" height="64" fill="white"/>
</clipPath>
</defs>
</svg>
