<svg width="25" height="25" viewBox="0 0 25 25" fill="none" xmlns="http://www.w3.org/2000/svg">
<circle cx="3.5" cy="3" r="2.5" fill="#10BBFF"/>
<circle cx="12.5" cy="12.5" r="2.5" fill="#10BBFF"/>
<circle cx="21.5" cy="22" r="2.5" fill="#10BBFF"/>
<path d="M3.57144 6.25C5.14242 6.25 6.44287 5.08304 6.66073 3.57143H24.1072C24.354 3.57143 24.5536 3.37187 24.5536 3.125C24.5536 2.87812 24.354 2.67857 24.1072 2.67857H6.66073C6.44287 1.16696 5.14242 0 3.57144 0C1.84823 0 0.446442 1.40223 0.446442 3.125C0.446442 4.84777 1.84823 6.25 3.57144 6.25ZM3.57144 0.892857C4.80225 0.892857 5.80358 1.8942 5.80358 3.125C5.80358 4.3558 4.80225 5.35714 3.57144 5.35714C2.34064 5.35714 1.3393 4.3558 1.3393 3.125C1.3393 1.8942 2.34064 0.892857 3.57144 0.892857Z" fill="#303030"/>
<path d="M21.4286 18.75C19.8576 18.75 18.5572 19.917 18.3393 21.4286H0.89287C0.646442 21.4286 0.446442 21.6281 0.446442 21.875C0.446442 22.1219 0.646442 22.3214 0.89287 22.3214H18.3393C18.5572 23.833 19.8576 25 21.4286 25C23.1514 25 24.5536 23.5978 24.5536 21.875C24.5536 20.1522 23.1514 18.75 21.4286 18.75ZM21.4286 24.1071C20.1978 24.1071 19.1964 23.1058 19.1964 21.875C19.1964 20.6442 20.1978 19.6429 21.4286 19.6429C22.6594 19.6429 23.6607 20.6442 23.6607 21.875C23.6607 23.1058 22.6594 24.1071 21.4286 24.1071Z" fill="#303030"/>
<path d="M24.1072 12.0536H15.7893C15.6125 10.4455 14.2469 9.19019 12.5924 9.19019C10.938 9.19019 9.57233 10.446 9.39555 12.0536H0.89287C0.646442 12.0536 0.446442 12.2531 0.446442 12.5C0.446442 12.7469 0.646442 12.9464 0.89287 12.9464H9.42367C9.68126 14.4643 11.0022 15.625 12.5924 15.625C14.1826 15.625 15.5031 14.4643 15.7607 12.9464H24.1072C24.354 12.9464 24.5536 12.7469 24.5536 12.5C24.5536 12.2531 24.354 12.0536 24.1072 12.0536ZM12.5924 14.7322C11.3107 14.7322 10.2679 13.6893 10.2679 12.4076C10.2679 11.1259 11.3107 10.083 12.5924 10.083C13.8741 10.083 14.917 11.1259 14.917 12.4076C14.917 13.6893 13.8741 14.7322 12.5924 14.7322Z" fill="#303030"/>
</svg>
