<svg width="25" height="25" viewBox="0 0 25 25" fill="none" xmlns="http://www.w3.org/2000/svg">
<path d="M20.1304 6H14.9131V1L20.1304 6Z" fill="#747474" stroke="#747474" stroke-width="0.5"/>
<path d="M14.4783 6.5V0.5H1.86957V24H20.1304V6.5H14.4783Z" fill="#C4C4C4"/>
<path d="M1.43478 0.5H1.86957M1.86957 0.5H14.4783V6.5H20.1304V24H1.86957V0.5Z" stroke="#C4C4C4"/>
<path d="M16.3191 9.16666H5.68081C5.44592 9.16666 5.25528 9.35291 5.25528 9.58332C5.25528 9.81374 5.44592 9.99999 5.68081 9.99999H16.3191C16.554 9.99999 16.7446 9.81374 16.7446 9.58332C16.7446 9.35291 16.554 9.16666 16.3191 9.16666Z" fill="#303030"/>
<path d="M5.68081 6.66668H9.93613C10.171 6.66668 10.3617 6.48043 10.3617 6.25001C10.3617 6.01959 10.171 5.83334 9.93613 5.83334H5.68081C5.44592 5.83334 5.25528 6.01959 5.25528 6.25001C5.25528 6.48043 5.44592 6.66668 5.68081 6.66668Z" fill="#303030"/>
<path d="M16.3191 12.5H5.68081C5.44592 12.5 5.25528 12.6863 5.25528 12.9167C5.25528 13.1471 5.44592 13.3333 5.68081 13.3333H16.3191C16.554 13.3333 16.7446 13.1471 16.7446 12.9167C16.7446 12.6863 16.554 12.5 16.3191 12.5Z" fill="#303030"/>
<path d="M16.3191 15.8333H5.68081C5.44592 15.8333 5.25528 16.0196 5.25528 16.25C5.25528 16.4804 5.44592 16.6666 5.68081 16.6666H16.3191C16.554 16.6666 16.7446 16.4804 16.7446 16.25C16.7446 16.0196 16.554 15.8333 16.3191 15.8333Z" fill="#303030"/>
<path d="M16.3191 19.1667H5.68081C5.44592 19.1667 5.25528 19.3529 5.25528 19.5833C5.25528 19.8137 5.44592 20 5.68081 20H16.3191C16.554 20 16.7446 19.8137 16.7446 19.5833C16.7446 19.3529 16.554 19.1667 16.3191 19.1667Z" fill="#303030"/>
<path d="M14.7932 0H1V25H21V6.0775L14.7932 0ZM15.0426 1.4225L19.5472 5.83333H15.0426V1.4225ZM1.85106 24.1667V0.833333H14.1915V6.66667H20.1489V24.1667H1.85106Z" fill="#303030"/>
</svg>
