<svg width="25" height="25" viewBox="0 0 25 25" fill="none" xmlns="http://www.w3.org/2000/svg">
<path d="M24.1304 6H18.9131V1L24.1304 6Z" fill="#747474" stroke="#747474" stroke-width="0.5"/>
<path d="M18.4783 6.5V0.5H5.86957V24H24.1304V6.5H18.4783Z" fill="#C4C4C4"/>
<path d="M5.43478 0.5H5.86957M5.86957 0.5H18.4783V6.5H24.1304V24H5.86957V0.5Z" stroke="#C4C4C4"/>
<path d="M20.3191 9.16666H9.68081C9.44592 9.16666 9.25528 9.35291 9.25528 9.58332C9.25528 9.81374 9.44592 9.99999 9.68081 9.99999H20.3191C20.554 9.99999 20.7446 9.81374 20.7446 9.58332C20.7446 9.35291 20.554 9.16666 20.3191 9.16666Z" fill="#303030"/>
<path d="M9.68081 6.66668H13.9361C14.171 6.66668 14.3617 6.48043 14.3617 6.25001C14.3617 6.01959 14.171 5.83334 13.9361 5.83334H9.68081C9.44592 5.83334 9.25528 6.01959 9.25528 6.25001C9.25528 6.48043 9.44592 6.66668 9.68081 6.66668Z" fill="#303030"/>
<path d="M20.3191 12.5H9.68081C9.44592 12.5 9.25528 12.6863 9.25528 12.9167C9.25528 13.1471 9.44592 13.3333 9.68081 13.3333H20.3191C20.554 13.3333 20.7446 13.1471 20.7446 12.9167C20.7446 12.6863 20.554 12.5 20.3191 12.5Z" fill="#303030"/>
<path d="M20.3191 15.8333H9.68081C9.44592 15.8333 9.25528 16.0196 9.25528 16.25C9.25528 16.4804 9.44592 16.6666 9.68081 16.6666H20.3191C20.554 16.6666 20.7446 16.4804 20.7446 16.25C20.7446 16.0196 20.554 15.8333 20.3191 15.8333Z" fill="#303030"/>
<path d="M20.3191 19.1667H9.68081C9.44592 19.1667 9.25528 19.3529 9.25528 19.5833C9.25528 19.8137 9.44592 20 9.68081 20H20.3191C20.554 20 20.7446 19.8137 20.7446 19.5833C20.7446 19.3529 20.554 19.1667 20.3191 19.1667Z" fill="#303030"/>
<path d="M18.7932 0H5V25H25V6.0775L18.7932 0ZM19.0426 1.4225L23.5472 5.83333H19.0426V1.4225ZM5.85106 24.1667V0.833333H18.1915V6.66667H24.1489V24.1667H5.85106Z" fill="#303030"/>
</svg>
