<svg width="32" height="32" viewBox="0 0 32 32" fill="none" xmlns="http://www.w3.org/2000/svg">
<path d="M16 0C7.16397 0 0 7.16397 0 16C0 24.837 7.16397 32 16 32C24.836 32 32 24.837 32 16C31.9999 7.16397 24.8359 0 16 0ZM20.4819 28.1889C20.3898 26.9369 20.2869 25.3859 20.2809 24.7579C20.2409 24.2759 20.1888 23.05 19.0249 22.267C23.6459 21.88 25.8448 19.326 26.0029 15.951C26.1349 14.0291 25.3709 12.339 24.014 10.975C24.0829 9.51608 23.9699 7.78701 23.876 7.0271C22.834 6.72712 20.404 8.01011 19.7249 8.55911C18.2929 8.00308 14.788 7.8081 12.658 8.55911C11.1479 7.49713 9.42897 6.84114 8.49199 7.02414C7.62697 8.94115 8.183 10.7532 8.35194 10.9691C7.2379 11.9871 5.68392 13.2401 6.10595 15.8651C6.78292 19.7141 9.49092 21.7901 13.8509 22.2981C12.9209 22.4881 12.7639 23.1821 12.6859 23.4831C9.75785 24.691 8.92094 22.7371 8.55087 22.2281C7.32193 20.7071 6.21887 21.1481 6.15087 21.172C6.08485 21.196 6.03488 21.292 6.04191 21.338C6.10386 21.666 6.77292 21.9991 6.80588 22.026C7.71287 22.702 8.04888 23.923 8.25583 24.271C9.55683 26.41 12.5809 25.523 12.6099 25.541C12.6118 25.728 12.5889 27.302 12.5709 28.527C7.05698 27.021 2.99997 21.9909 2.99997 16C2.99997 8.81999 8.81999 3.00008 15.9999 3.00008C23.1798 3.00008 28.9999 8.81999 28.9999 16C28.9999 21.603 25.45 26.3619 20.4819 28.1889Z" fill="#303030"/>
</svg>
