<svg width="25" height="25" viewBox="0 0 25 25" fill="none" xmlns="http://www.w3.org/2000/svg">
<path d="M16 3H7V23H22V9H16V3Z" fill="#C4C4C4" stroke="#C4C4C4"/>
<path d="M21.5 8.5L16.5 3.5V8.5H21.5Z" fill="#747474" stroke="#747474"/>
<path d="M19 16C18.5197 13.4393 17.7025 12.5116 15 12C12.1496 12.4978 11.3587 13.4439 11 16C11.2995 18.5236 12.1923 19.3811 15 20C17.8049 19.4314 18.7927 18.6453 19 16Z" fill="#7DD3DF" stroke="#7DD3DF"/>
<path d="M20 1H3.5V21H6V2H16.5L20 5.5V1Z" fill="#898989" stroke="#898989"/>
<path d="M23.8779 24.2887L22.75 23.1608V8.5775L22.5429 8.37042L20.6667 6.49417V0H2.5V21.6667H6.08332V23.75H22.1608L23.2887 24.8779C23.37 24.9592 23.4767 25 23.5833 25C23.69 25 23.7967 24.9592 23.8779 24.8779C24.0408 24.715 24.0408 24.4517 23.8779 24.2887ZM21.3275 8.33333H16.5V3.50583L20.6667 7.6725L21.3275 8.33333ZM3.33333 20.8333V0.833333L19.8333 0.833333V5.66083L16.4629 2.29042L16.2558 2.08333H6.08332V20.8333H3.33333ZM6.91666 22.9167V21.6667V2.91667H15.6667V9.16667H21.9167V22.3275L18.7858 19.1967C19.5108 18.3383 19.9504 17.2312 19.9504 16.0221C19.9504 13.3046 17.7396 11.0938 15.0221 11.0938C12.3046 11.0938 10.0937 13.3046 10.0937 16.0221C10.0937 18.7396 12.3046 20.9504 15.0221 20.9504C16.2312 20.9504 17.3383 20.5108 18.1967 19.7858L21.3275 22.9167H6.91666ZM15.0221 20.1171C12.7642 20.1171 10.9271 18.28 10.9271 16.0221C10.9271 13.7642 12.7642 11.9271 15.0221 11.9271C17.28 11.9271 19.1171 13.7642 19.1171 16.0221C19.1171 18.28 17.28 20.1171 15.0221 20.1171Z" fill="#303030"/>
<path d="M11.0937 15H13.5937C13.8241 15 14.0104 14.8137 14.0104 14.5833C14.0104 14.3529 13.8241 14.1667 13.5937 14.1667H11.0937C10.8633 14.1667 10.6771 14.3529 10.6771 14.5833C10.6771 14.8137 10.8633 15 11.0937 15Z" fill="#303030"/>
<path d="M16.0937 16.6667H11.0937C10.8633 16.6667 10.6771 16.8529 10.6771 17.0833C10.6771 17.3137 10.8633 17.5 11.0937 17.5H16.0937C16.3241 17.5 16.5104 17.3137 16.5104 17.0833C16.5104 16.8529 16.3241 16.6667 16.0937 16.6667Z" fill="#303030"/>
</svg>
